<?xml version="1.0" encoding="UTF-8" standalone="no"?>
<!-- Created with Inkscape (http://www.inkscape.org/) -->

<svg
   xmlns:dc="http://purl.org/dc/elements/1.1/"
   xmlns:cc="http://creativecommons.org/ns#"
   xmlns:rdf="http://www.w3.org/1999/02/22-rdf-syntax-ns#"
   xmlns:svg="http://www.w3.org/2000/svg"
   xmlns="http://www.w3.org/2000/svg"
   xmlns:sodipodi="http://sodipodi.sourceforge.net/DTD/sodipodi-0.dtd"
   xmlns:inkscape="http://www.inkscape.org/namespaces/inkscape"
   version="1.1"
   width="750"
   height="350"
   id="svg2985"
   inkscape:version="0.91 r13725"
   sodipodi:docname="french_curve.svg">
  <sodipodi:namedview
     pagecolor="#ffffff"
     bordercolor="#666666"
     borderopacity="1"
     objecttolerance="10"
     gridtolerance="10"
     guidetolerance="10"
     inkscape:pageopacity="0"
     inkscape:pageshadow="2"
     inkscape:window-width="789"
     inkscape:window-height="593"
     id="namedview6"
     showgrid="false"
     fit-margin-top="0"
     fit-margin-left="0"
     fit-margin-right="0"
     fit-margin-bottom="0"
     inkscape:zoom="0.78666667"
     inkscape:cx="358.37289"
     inkscape:cy="151.96409"
     inkscape:window-x="89"
     inkscape:window-y="29"
     inkscape:window-maximized="0"
     inkscape:current-layer="svg2985" />
  <defs
     id="defs2987" />
  <metadata
     id="metadata2990">
    <rdf:RDF>
      <cc:Work
         rdf:about="">
        <dc:format>image/svg+xml</dc:format>
        <dc:type
           rdf:resource="http://purl.org/dc/dcmitype/StillImage" />
        <dc:title />
      </cc:Work>
    </rdf:RDF>
  </metadata>
  <g
     id="layer1"
     transform="translate(-41.627105,-101.96408)"
     style="fill:#ffffff;stroke:#000000" />
  <g
     id="g3045"
     transform="translate(-95.88084,-249.07082)"
     style="fill:#ffffff;stroke:#000000">
    <path
       style="fill:#ffffff;stroke:#000000;stroke-width:0.1;stroke-miterlimit:4;stroke-opacity:1;stroke-dasharray:none"
       d="m 424.68643,596.25652 c -0.825,-0.30342 -9.15,-3.93182 -18.5,-8.0631 -34.32354,-15.1658 -64.7684,-25.44911 -83.5,-28.20365 -4.125,-0.6066 -9.3,-1.58071 -11.5,-2.16469 -2.39775,-0.63648 -26.43154,-1.38759 -60,-1.87514 -43.54789,-0.63249 -57.44533,-1.143 -62.5,-2.29589 -20.37886,-4.6481 -36.77643,-18.72386 -46.23453,-39.68796 -3.31173,-7.34053 -6.77205,-23.73835 -6.75233,-31.99802 0.0196,-8.21212 3.43219,-23.20116 6.64938,-29.20592 4.1506,-7.74695 12.11188,-15.32087 20.06365,-19.08745 6.41311,-3.03774 7.38623,-3.20769 18.27383,-3.19126 9.96447,0.015 12.06377,0.31628 15.7222,2.25614 10.39262,5.51061 16.74763,15.41197 17.84431,27.80212 0.9796,11.06745 -2.27926,13.12754 -10.01799,6.33285 -6.17393,-5.42078 -13.83563,-7.2569 -20.23342,-4.84892 -4.78537,1.8011 -10.24097,7.95173 -11.84542,13.35452 -1.97141,6.63843 -1.85415,10.05912 0.59323,17.30621 4.15187,12.29437 16.48135,20.22564 32.74206,21.06221 9.48414,0.48793 14.61984,-0.56828 23.75891,-4.88629 17.97477,-8.49267 28.60012,-23.80122 31.41627,-45.26322 1.88455,-14.36225 -1.97634,-34.14155 -8.80989,-45.13297 -3.72271,-5.98778 -11.32755,-14.20128 -17.33393,-18.72127 -5.94221,-4.47168 -10.39524,-6.59026 -29.33633,-13.95705 -51.72144,-20.11613 -78.19449,-37.57359 -90.77574,-59.86141 -8.1313,-14.40469 -9.22426,-19.32697 -9.22426,-41.5425 0,-18.14769 0.11969,-19.33771 2.44384,-24.2989 2.23393,-4.76859 2.70382,-5.191 5.47053,-4.91777 2.67405,0.26408 3.76535,1.52225 9.3666,10.7989 14.21467,23.54197 27.83528,37.45919 42.86142,43.79478 8.43969,3.5585 22.37005,5.53369 33.85761,4.80069 17.82519,-1.1374 30.66663,-2.50694 37.40418,-3.98917 6.02902,-1.32636 10.98476,-2.24283 33.09582,-6.12046 12.32277,-2.16106 23.07477,-4.42515 30.5,-6.42253 3.85,-1.03565 11.5,-2.85986 17,-4.05382 10.70274,-2.32337 20.18038,-4.57561 33,-7.84201 4.4,-1.12111 13.4,-3.23924 20,-4.70695 6.6,-1.46772 14.025,-3.2765 16.5,-4.01951 4.64449,-1.3943 23.71547,-5.58026 56.5,-12.40139 12.59793,-2.62112 32.26596,-5.8299 43.5,-7.09689 5.225,-0.58929 11.075,-1.49244 13,-2.00702 1.925,-0.51457 17.45,-1.87542 34.5,-3.02411 44.09774,-2.97093 88.52341,-1.79323 117.5,3.11488 6.325,1.07134 13.3,2.21582 15.5,2.54329 13.72472,2.04295 33.5208,7.04499 48,12.12857 49.45874,17.36473 84.14289,45.62884 103.45031,84.30165 4.22737,8.46743 10.77517,26.28151 11.96747,32.55893 0.51616,2.71759 1.41544,6.19373 1.9984,7.72475 0.58296,1.53103 1.83111,11.52858 2.77366,22.21678 1.47293,16.70256 1.53905,21.194 0.47057,31.96541 -2.27894,22.97416 -11.21728,43.53859 -26.80875,61.67892 -17.57049,20.44286 -43.86232,31.85521 -73.38823,31.85521 -38.13897,0 -63.55755,-15.29322 -74.90206,-45.06522 -2.93566,-7.70421 -4.41689,-21.52693 -3.6364,-33.93478 0.81805,-13.00517 2.73631,-20.72116 7.10632,-28.58445 5.02318,-9.03858 10.37556,-13.9824 20.30033,-18.75079 l 8.66838,-4.16476 15.58738,0 15.58739,0 5.91261,3.66135 c 6.97559,4.31959 10.63201,9.6301 13.00312,18.88543 2.73226,10.66506 0.73146,26.95322 -3.31088,26.95322 -0.76964,0 -3.89734,-2.3625 -6.95044,-5.25 l -5.5511,-5.25 -6.8335,0 c -6.44247,0 -7.04396,0.20028 -10.5115,3.5 -4.2242,4.01977 -8.10255,11.61307 -9.00491,17.63045 -1.2838,8.56099 5.97136,19.46988 16.35048,24.58465 5.96581,2.93991 7.73117,3.32031 16.80934,3.62206 9.42268,0.31321 10.69308,0.11709 17.87808,-2.75992 9.37863,-3.75539 14.87863,-7.58319 20.70926,-14.4129 6.27709,-7.35267 8.45919,-11.52655 11.48441,-21.96706 5.83748,-20.14615 2.16204,-46.36042 -9.47169,-67.55466 -3.70393,-6.74778 -15.91605,-19.85259 -22.80095,-24.46765 -2.26209,-1.51632 -8.56209,-4.402 -14,-6.41262 l -9.8871,-3.65567 -17,-0.0533 c -15.3844,-0.0483 -17.66525,0.1737 -24,2.33563 -8.72913,2.9791 -15.12653,6.16378 -23.61369,11.75509 -23.45122,15.44954 -41.91331,52.18148 -46.92227,93.3559 -0.56872,4.675 -1.43874,9.85 -1.93336,11.5 -0.49463,1.65 -1.41531,5.7 -2.04597,9 -2.48213,12.98815 -9.0642,30.95243 -16.30469,44.5 -11.73774,21.9623 -27.56782,36.42804 -47.18002,43.11374 -6.41158,2.18567 -8.59713,2.38626 -26,2.38626 -17.20673,0 -19.62531,-0.21614 -25.62532,-2.29004 -20.64323,-7.13532 -32.10667,-20.43878 -33.53134,-38.9135 -1.00486,-13.03074 2.44085,-19.57543 12.23568,-23.24014 9.9662,-3.72883 19.58036,-1.85434 24.27028,4.73204 3.02781,4.25217 3.4683,7.40002 2.13863,15.28322 -1.11584,6.61542 -1.05916,7.35728 0.74821,9.79303 3.28228,4.42344 7.90506,4.89887 16.64366,1.71172 6.37459,-2.32494 8.21569,-3.55773 12.09551,-8.0991 5.98547,-7.00607 7.6619,-11.26598 8.27567,-21.02899 1.37143,-21.81457 -11.66757,-40.29804 -33.43197,-47.39158 -16.42243,-5.35247 -26.28336,-4.87609 -42.98437,2.07656 -6.25567,2.60424 -8.86879,4.49116 -15.67109,11.316 -5.13273,5.14974 -9.77325,11.02436 -12.49931,15.82338 -8.36816,14.7315 -15.6186,38.36007 -16.8146,54.79738 -1.007,13.83964 1.97305,19.81265 13.49744,27.05335 3.65911,2.29899 6.98353,4.67423 7.38761,5.27832 0.40408,0.60409 0.74158,2.99929 0.75,5.32267 0.0133,3.67361 -0.36932,4.42322 -2.93503,5.75 -2.86853,1.48338 -10.01942,1.93058 -13.04966,0.81611 z M 318.87748,522.73783 c 5.35423,-2.24543 14.51067,-11.27968 17.55054,-17.31633 1.09549,-2.17548 3.19959,-8.45541 4.67577,-13.95541 14.13026,-52.64704 33.59835,-90.80841 61.69025,-120.92526 25.68604,-27.53758 65.92105,-50.68254 103.39239,-59.47588 4.95,-1.16161 12.825,-3.01497 17.5,-4.11859 15.85932,-3.74387 41.35317,-5.97872 68,-5.96101 13.475,0.009 28.55,0.45495 33.5,0.99111 24.67334,2.67251 32.4849,3.07444 36.48138,1.87706 5.31832,-1.59341 7.47317,-4.16698 7.47317,-8.92536 0,-4.94531 -4.20853,-9.6712 -9.37971,-10.53277 -1.96616,-0.32758 -5.59984,-1.22622 -8.07484,-1.99696 -2.475,-0.77075 -9.45,-2.07399 -15.5,-2.89609 -6.05,-0.8221 -13.925,-1.94502 -17.5,-2.49538 -3.575,-0.55036 -19.55,-1.02402 -35.5,-1.05257 -30.63666,-0.0549 -49.01002,1.54454 -70,6.09344 -4.95,1.07275 -10.0267,1.94321 -11.28155,1.93436 -1.25485,-0.009 -4.85485,0.80856 -8,1.81647 -3.14515,1.00791 -9.54345,2.84255 -14.21845,4.07697 -4.675,1.23443 -10.975,3.13821 -14,4.23062 -3.025,1.09242 -9.1,3.24779 -13.5,4.78971 -29.44762,10.3195 -63.43205,29.28646 -85.91657,47.95067 -22.12286,18.36398 -41.79221,41.10091 -54.17108,62.61946 -8.51766,14.8065 -16.54055,34.54592 -20.72844,51 -6.9595,27.34368 -7.42128,39.49732 -1.9249,50.66205 3.90952,7.94136 6.70563,10.62551 13.44555,12.9072 5.78585,1.9587 8.80665,1.71353 15.98649,-1.29751 z m 89.77166,-39.25858 c 2.31779,-0.81777 6.50748,-3.54874 9.31042,-6.06882 10.34862,-9.30429 34.62425,-24.03683 44.38127,-26.93435 7.80641,-2.31825 10.04481,-5.43545 12.26327,-17.0778 4.75456,-24.95168 13.92243,-40.87811 33.12154,-57.53874 20.87029,-18.11085 52.83314,-32.69697 88.38205,-40.33279 12.1791,-2.61604 14.6582,-3.87984 17.18112,-8.75864 1.94344,-3.7582 1.7506,-6.08356 -0.77028,-9.28834 -3.82075,-4.85729 -7.5895,-5.74581 -19.15175,-4.51518 -5.59919,0.59594 -12.43035,1.70743 -15.18035,2.46997 -2.75,0.76254 -7.25,1.70543 -10,2.09531 -15.6683,2.22137 -45.5863,12.08621 -61,20.11347 -28.10724,14.63791 -50.24023,35.32428 -64.03106,59.84595 -5.41984,9.63711 -13.46709,31.23048 -15.91232,42.69794 -0.78573,3.68485 -3.53003,4.92682 -12.99479,5.88097 -17.60653,1.77492 -24.24517,5.56093 -27.12576,15.46979 -1.44853,4.98279 -1.44206,5.89982 0.0789,11.1781 3.2118,11.14585 10.29222,14.69904 21.4477,10.76316 z m 157.91352,-11.20177 c 3.86885,-1.9786 6.85103,-4.55693 9.88004,-8.54207 4.86731,-6.40373 5.73237,-9.54916 9.21599,-33.51039 1.13875,-7.83259 2.54318,-15.48259 3.12097,-17 0.57778,-1.51741 1.47462,-5.00893 1.99296,-7.75893 1.79177,-9.50597 9.08574,-32.03138 13.11432,-40.5 2.22393,-4.675 4.26679,-10.14228 4.53969,-12.14951 0.422,-3.10391 0.11084,-3.90199 -2.08137,-5.33838 -4.15738,-2.72402 -7.50795,-1.15863 -21.30512,9.95374 -35.62689,28.69424 -57.05211,59.73725 -59.03383,85.53415 -0.39109,5.09099 -0.0347,7.73595 1.64415,12.20163 2.33769,6.21823 9.80764,15.33396 13.96058,17.03637 10.65303,4.36697 16.52245,4.38423 24.95162,0.0734 z M 284.07047,375.93376 c 1.8995,-1.66778 6.49902,-7.32858 10.22117,-12.57956 3.72214,-5.25098 9.51505,-12.54894 12.87313,-16.21768 8.7658,-9.57675 10.52166,-12.10181 10.52166,-15.13097 0,-3.07356 -3.28997,-6.59117 -7.03257,-7.51917 -2.90579,-0.72051 -32.74775,2.06549 -36.20538,3.38008 -1.26365,0.48044 -5.53928,1.3765 -9.50142,1.99124 -15.98581,2.48028 -39.27864,10.99577 -43.6773,15.96773 -2.18047,2.46466 -2.52064,7.30635 -0.67,9.53622 1.36562,1.64548 2.81992,2.14791 17.58667,6.07585 11.69006,3.10954 25.77267,8.67032 31.06512,12.26663 4.82727,3.28022 8.62764,5.24808 10.15008,5.2558 0.66837,0.003 2.76934,-1.35839 4.66884,-3.02617 z"
       id="path3047"
       inkscape:connector-curvature="0" />
  </g>
</svg>
